<?xml version="1.0" encoding="UTF-8"?>
<svg width="365px" height="116px" viewBox="0 0 365 116" version="1.1" xmlns="http://www.w3.org/2000/svg" xmlns:xlink="http://www.w3.org/1999/xlink">
    <!-- Generator: Sketch 55.1 (78136) - https://sketchapp.com -->
    <title>Group</title>
    <desc>Created with Sketch.</desc>
    <g id="Page-1" stroke="none" stroke-width="1" fill="none" fill-rule="evenodd">
        <g id="Desktop-Copy-2" transform="translate(-324.000000, -449.000000)" fill="#FFFFFF" fill-rule="nonzero">
            <g id="Group" transform="translate(324.000000, 449.000000)">
                <path d="M189.385,54.592 C192.501016,56.796011 194.951991,59.5319837 196.738,62.8 C198.524009,66.0680163 199.417,69.601981 199.417,73.402 C199.417,78.0380232 198.087013,82.2749808 195.427,86.113 C192.766987,89.9510192 189.233022,92.8199905 184.825,94.72 C181.556984,96.1640072 178.175017,96.886 174.679,96.886 L141.049,96.886 C140.288996,96.886 139.624003,96.6010029 139.054,96.031 C138.483997,95.4609972 138.199,94.7580042 138.199,93.922 L138.199,19.708 C138.199,18.9479962 138.483997,18.2830029 139.054,17.713 C139.624003,17.1429972 140.288996,16.858 141.049,16.858 L169.777,16.858 C173.349018,16.858 176.844983,17.5799928 180.265,19.024 C184.521021,21.0000099 187.978987,23.887981 190.639,27.688 C193.299013,31.488019 194.629,35.7059768 194.629,40.342 C194.629,45.5860262 192.881017,50.3359787 189.385,54.592 Z M152.905,32.476 L152.905,48.208 C152.905,48.6640023 153.075998,49.0629983 153.418,49.405 C153.760002,49.7470017 154.158998,49.918 154.615,49.918 L169.777,49.918 C172.589014,49.918 174.98299,48.9870093 176.959,47.125 C178.93501,45.2629907 179.923,43.0020133 179.923,40.342 C179.923,37.6819867 178.93501,35.4210093 176.959,33.559 C174.98299,31.6969907 172.589014,30.766 169.777,30.766 L154.615,30.766 C154.158998,30.766 153.760002,30.9369983 153.418,31.279 C153.075998,31.6210017 152.905,32.0199977 152.905,32.476 Z M174.565,82.978 C177.377014,82.978 179.77099,82.0280095 181.747,80.128 C183.72301,78.2279905 184.711,75.9670131 184.711,73.345 C184.711,70.7229869 183.72301,68.4810093 181.747,66.619 C179.77099,64.7569907 177.377014,63.826 174.565,63.826 L154.615,63.826 C154.158998,63.826 153.760002,63.9969983 153.418,64.339 C153.075998,64.6810017 152.905,65.0799977 152.905,65.536 L152.905,81.268 C152.905,81.7240023 153.075998,82.1229983 153.418,82.465 C153.760002,82.8070017 154.158998,82.978 154.615,82.978 L174.565,82.978 Z M205.195,93.466 L205.195,14.236 C205.195,13.5519966 205.422998,12.9820023 205.879,12.526 C206.335002,12.0699977 206.866997,11.842 207.475,11.842 L217.621,11.842 C218.229003,11.842 218.760998,12.0699977 219.217,12.526 C219.673002,12.9820023 219.901,13.5519966 219.901,14.236 L219.901,93.466 C219.901,93.7700015 219.844001,94.0549987 219.73,94.321 C219.615999,94.5870013 219.445001,94.8339989 219.217,95.062 C218.988999,95.2900011 218.742001,95.4609994 218.476,95.575 C218.209999,95.6890006 217.925002,95.746 217.621,95.746 L207.475,95.746 C206.866997,95.746 206.335002,95.5180023 205.879,95.062 C205.422998,94.6059977 205.195,94.074003 205.195,93.466 Z M228.757,93.466 L228.757,44.446 C228.757,43.7619966 228.984998,43.1920023 229.441,42.736 C229.897002,42.2799977 230.466997,42.052 231.151,42.052 L241.183,42.052 C241.867003,42.052 242.436998,42.2799977 242.893,42.736 C243.349002,43.1920023 243.577,43.7619966 243.577,44.446 L243.577,93.466 C243.577,94.074003 243.349002,94.6059977 242.893,95.062 C242.436998,95.5180023 241.867003,95.746 241.183,95.746 L231.151,95.746 C230.466997,95.746 229.897002,95.5180023 229.441,95.062 C228.984998,94.6059977 228.757,94.074003 228.757,93.466 Z M230.695,32.476 C229.174992,30.9559924 228.415,29.1130108 228.415,26.947 C228.415,24.7809892 229.174992,22.9380076 230.695,21.418 C232.215008,19.8979924 234.038989,19.138 236.167,19.138 C238.295011,19.138 240.118992,19.8979924 241.639,21.418 C243.159008,22.9380076 243.919,24.7809892 243.919,26.947 C243.919,29.1130108 243.159008,30.9559924 241.639,32.476 C240.118992,33.9960076 238.295011,34.756 236.167,34.756 C234.038989,34.756 232.215008,33.9960076 230.695,32.476 Z M267.139,64.624 L267.139,92.212 C267.139,92.9720038 266.873003,93.6179973 266.341,94.15 C265.808997,94.6820027 265.163004,94.948 264.403,94.948 L255.283,94.948 C254.446996,94.948 253.763003,94.6820027 253.231,94.15 C252.698997,93.6179973 252.433,92.9720038 252.433,92.212 L252.433,43.99 C252.433,43.2299962 252.698997,42.5840027 253.231,42.052 C253.763003,41.5199973 254.408996,41.254 255.169,41.254 L262.123,41.254 C263.491007,41.254 264.668995,41.7479951 265.657,42.736 C266.645005,43.7240049 267.139,44.9019932 267.139,46.27 C268.355006,45.0539939 270.216987,43.8760057 272.725,42.736 C275.233013,41.5959943 277.360991,41.026 279.109,41.026 C286.025035,41.026 291.629979,43.229978 295.924,47.638 C300.218021,52.046022 302.365,57.7079654 302.365,64.624 L302.365,92.668 C302.365,93.4280038 302.099003,94.0929972 301.567,94.663 C301.034997,95.2330029 300.389004,95.518 299.629,95.518 L290.509,95.518 C289.748996,95.518 289.084003,95.2330029 288.514,94.663 C287.943997,94.0929972 287.659,93.4280038 287.659,92.668 L287.659,65.08 C287.659,62.4199867 286.785009,60.0450105 285.037,57.955 C283.288991,55.8649896 281.085013,54.7060011 278.425,54.478 C275.384985,54.1739985 272.744011,55.0479897 270.502,57.1 C268.259989,59.1520103 267.139,61.6599852 267.139,64.624 Z M363.091,43.876 L343.027,66.904 C342.570998,67.3600023 342.362,67.9299966 342.4,68.614 C342.438,69.2980034 342.646998,69.8679977 343.027,70.324 L364.459,94.036 C364.839002,94.4920023 364.953001,94.8909983 364.801,95.233 C364.648999,95.5750017 364.269003,95.746 363.661,95.746 L348.499,95.746 C346.902992,95.746 345.611005,95.1760057 344.623,94.036 L333.337,81.496 C332.880998,81.0399977 332.349003,80.812 331.741,80.812 C331.132997,80.812 330.639002,81.0399977 330.259,81.496 L327.523,84.688 C326.458995,85.9040061 325.927,87.2719924 325.927,88.792 L325.927,93.466 C325.927,94.074003 325.699002,94.6059977 325.243,95.062 C324.786998,95.5180023 324.255003,95.746 323.647,95.746 L313.501,95.746 C312.892997,95.746 312.361002,95.5180023 311.905,95.062 C311.448998,94.6059977 311.221,94.074003 311.221,93.466 L311.221,14.236 C311.221,13.5519966 311.448998,12.9820023 311.905,12.526 C312.361002,12.0699977 312.892997,11.842 313.501,11.842 L323.647,11.842 C324.255003,11.842 324.786998,12.0699977 325.243,12.526 C325.699002,12.9820023 325.927,13.5519966 325.927,14.236 L325.927,61.66 C325.927,62.3440034 326.078998,62.7429994 326.383,62.857 C326.687002,62.9710006 327.066998,62.7620027 327.523,62.23 L343.597,43.876 C344.585005,42.6599939 345.838992,42.052 347.359,42.052 L362.293,42.052 C362.901003,42.052 363.280999,42.2229983 363.433,42.565 C363.585001,42.9070017 363.471002,43.3439973 363.091,43.876 Z" id="Blink"></path>
                <path d="M40.7065341,96.8340793 L65.6689221,75.4592047 L43.1090315,65.7263634 C37.3466056,63.240324 37.0038919,55.1984574 42.5339182,52.2311768 L59.597169,43.0754423 L42.4713419,33.6756679 C40.0715292,32.3584937 38.580004,29.8384272 38.580004,27.1009012 L38.580004,20.1863401 C24.8743487,27.2393674 15.5,41.5249355 15.5,58 C15.5,75.3139104 25.8532615,90.2096869 40.7065341,96.8340793 Z M53.580004,15.7270669 L53.580004,22.6619552 L78.9293012,36.575308 C84.1458841,39.43851 84.1102528,46.9452496 78.8667249,49.758802 L63.3110994,58.1055806 L82.6509326,66.4492171 C87.7453176,68.6470487 88.7724165,75.4238471 84.5580717,79.03252 L59.5186311,100.473373 C82.2873659,99.6737266 100.5,80.9637576 100.5,58 C100.5,34.5278981 81.4721019,15.5 58,15.5 C56.5074481,15.5 55.0328662,15.5769389 53.580004,15.7270669 Z M58,115.5 C26.2436269,115.5 0.5,89.7563731 0.5,58 C0.5,26.2436269 26.2436269,0.5 58,0.5 C89.7563731,0.5 115.5,26.2436269 115.5,58 C115.5,89.7563731 89.7563731,115.5 58,115.5 Z" id="Combined-Shape"></path>
            </g>
        </g>
    </g>
</svg>